<svg id="Ebene_1" data-name="Ebene 1" xmlns="http://www.w3.org/2000/svg" xmlns:xlink="http://www.w3.org/1999/xlink" viewBox="0 0 1000 1000"><defs><style>.cls-1{fill:none;}.cls-2,.cls-5{fill:#007ac1;}.cls-3{fill:#03a9f4;}.cls-4{clip-path:url(#clip-path);}.cls-5,.cls-6{font-size:341.13px;font-family:Roboto-Regular, Roboto;}.cls-6{fill:#fff;}</style><clipPath id="clip-path"><path class="cls-1" d="M500,22.9C236.69,22.9,23.21,236.38,23.21,499.73A474.59,474.59,0,0,0,96.94,754.54q4.95,7.81,10.2,15.4l-56,202.26,208.94-60.33h0A474.62,474.62,0,0,0,500,976.55c263.34,0,476.82-213.48,476.82-476.82S763.38,22.9,500,22.9Z"/></clipPath></defs><title>sayit-logo-</title><path class="cls-2" d="M500,0C224,0,.31,223.73.31,499.73A497.39,497.39,0,0,0,77.58,766.78q5.18,8.18,10.69,16.14l-58.65,212,219-63.22h0A497.42,497.42,0,0,0,500,999.45c276,0,499.73-223.73,499.73-499.73S776,0,500,0Z"/><path class="cls-3" d="M500,22.9C236.69,22.9,23.21,236.38,23.21,499.73A474.59,474.59,0,0,0,96.94,754.54q4.95,7.81,10.2,15.4l-56,202.26,208.94-60.33h0A474.62,474.62,0,0,0,500,976.55c263.34,0,476.82-213.48,476.82-476.82S763.38,22.9,500,22.9Z"/><g class="cls-4"><text class="cls-5" transform="translate(816.32 1291.53)">SayIt</text><text class="cls-5" transform="translate(815.32 1290.53)">SayIt</text><text class="cls-5" transform="translate(814.32 1289.53)">SayIt</text><text class="cls-5" transform="translate(813.32 1288.53)">SayIt</text><text class="cls-5" transform="translate(812.32 1287.53)">SayIt</text><text class="cls-5" transform="translate(811.32 1286.53)">SayIt</text><text class="cls-5" transform="translate(810.32 1285.53)">SayIt</text><text class="cls-5" transform="translate(809.32 1284.53)">SayIt</text><text class="cls-5" transform="translate(808.32 1283.53)">SayIt</text><text class="cls-5" transform="translate(807.32 1282.53)">SayIt</text><text class="cls-5" transform="translate(806.32 1281.53)">SayIt</text><text class="cls-5" transform="translate(805.32 1280.53)">SayIt</text><text class="cls-5" transform="translate(804.32 1279.53)">SayIt</text><text class="cls-5" transform="translate(803.32 1278.53)">SayIt</text><text class="cls-5" transform="translate(802.32 1277.53)">SayIt</text><text class="cls-5" transform="translate(801.32 1276.53)">SayIt</text><text class="cls-5" transform="translate(800.32 1275.53)">SayIt</text><text class="cls-5" transform="translate(799.32 1274.53)">SayIt</text><text class="cls-5" transform="translate(798.32 1273.53)">SayIt</text><text class="cls-5" transform="translate(797.32 1272.53)">SayIt</text><text class="cls-5" transform="translate(796.32 1271.53)">SayIt</text><text class="cls-5" transform="translate(795.32 1270.53)">SayIt</text><text class="cls-5" transform="translate(794.32 1269.53)">SayIt</text><text class="cls-5" transform="translate(793.32 1268.53)">SayIt</text><text class="cls-5" transform="translate(792.32 1267.53)">SayIt</text><text class="cls-5" transform="translate(791.32 1266.53)">SayIt</text><text class="cls-5" transform="translate(790.32 1265.53)">SayIt</text><text class="cls-5" transform="translate(789.32 1264.53)">SayIt</text><text class="cls-5" transform="translate(788.32 1263.53)">SayIt</text><text class="cls-5" transform="translate(787.32 1262.53)">SayIt</text><text class="cls-5" transform="translate(786.32 1261.53)">SayIt</text><text class="cls-5" transform="translate(785.32 1260.53)">SayIt</text><text class="cls-5" transform="translate(784.32 1259.53)">SayIt</text><text class="cls-5" transform="translate(783.32 1258.53)">SayIt</text><text class="cls-5" transform="translate(782.32 1257.53)">SayIt</text><text class="cls-5" transform="translate(781.32 1256.53)">SayIt</text><text class="cls-5" transform="translate(780.32 1255.53)">SayIt</text><text class="cls-5" transform="translate(779.32 1254.53)">SayIt</text><text class="cls-5" transform="translate(778.32 1253.53)">SayIt</text><text class="cls-5" transform="translate(777.32 1252.53)">SayIt</text><text class="cls-5" transform="translate(776.32 1251.53)">SayIt</text><text class="cls-5" transform="translate(775.32 1250.53)">SayIt</text><text class="cls-5" transform="translate(774.32 1249.53)">SayIt</text><text class="cls-5" transform="translate(773.32 1248.53)">SayIt</text><text class="cls-5" transform="translate(772.32 1247.53)">SayIt</text><text class="cls-5" transform="translate(771.32 1246.53)">SayIt</text><text class="cls-5" transform="translate(770.32 1245.53)">SayIt</text><text class="cls-5" transform="translate(769.32 1244.53)">SayIt</text><text class="cls-5" transform="translate(768.32 1243.53)">SayIt</text><text class="cls-5" transform="translate(767.32 1242.53)">SayIt</text><text class="cls-5" transform="translate(766.32 1241.53)">SayIt</text><text class="cls-5" transform="translate(765.32 1240.53)">SayIt</text><text class="cls-5" transform="translate(764.32 1239.53)">SayIt</text><text class="cls-5" transform="translate(763.32 1238.53)">SayIt</text><text class="cls-5" transform="translate(762.32 1237.53)">SayIt</text><text class="cls-5" transform="translate(761.32 1236.53)">SayIt</text><text class="cls-5" transform="translate(760.32 1235.53)">SayIt</text><text class="cls-5" transform="translate(759.32 1234.53)">SayIt</text><text class="cls-5" transform="translate(758.32 1233.53)">SayIt</text><text class="cls-5" transform="translate(757.32 1232.53)">SayIt</text><text class="cls-5" transform="translate(756.32 1231.53)">SayIt</text><text class="cls-5" transform="translate(755.32 1230.53)">SayIt</text><text class="cls-5" transform="translate(754.32 1229.53)">SayIt</text><text class="cls-5" transform="translate(753.32 1228.53)">SayIt</text><text class="cls-5" transform="translate(752.32 1227.53)">SayIt</text><text class="cls-5" transform="translate(751.32 1226.53)">SayIt</text><text class="cls-5" transform="translate(750.32 1225.53)">SayIt</text><text class="cls-5" transform="translate(749.32 1224.53)">SayIt</text><text class="cls-5" transform="translate(748.32 1223.53)">SayIt</text><text class="cls-5" transform="translate(747.32 1222.53)">SayIt</text><text class="cls-5" transform="translate(746.32 1221.53)">SayIt</text><text class="cls-5" transform="translate(745.32 1220.53)">SayIt</text><text class="cls-5" transform="translate(744.32 1219.53)">SayIt</text><text class="cls-5" transform="translate(743.32 1218.53)">SayIt</text><text class="cls-5" transform="translate(742.32 1217.53)">SayIt</text><text class="cls-5" transform="translate(741.32 1216.53)">SayIt</text><text class="cls-5" transform="translate(740.32 1215.53)">SayIt</text><text class="cls-5" transform="translate(739.32 1214.53)">SayIt</text><text class="cls-5" transform="translate(738.32 1213.53)">SayIt</text><text class="cls-5" transform="translate(737.32 1212.53)">SayIt</text><text class="cls-5" transform="translate(736.32 1211.53)">SayIt</text><text class="cls-5" transform="translate(735.32 1210.53)">SayIt</text><text class="cls-5" transform="translate(734.32 1209.53)">SayIt</text><text class="cls-5" transform="translate(733.32 1208.53)">SayIt</text><text class="cls-5" transform="translate(732.32 1207.53)">SayIt</text><text class="cls-5" transform="translate(731.32 1206.53)">SayIt</text><text class="cls-5" transform="translate(730.32 1205.53)">SayIt</text><text class="cls-5" transform="translate(729.32 1204.53)">SayIt</text><text class="cls-5" transform="translate(728.32 1203.53)">SayIt</text><text class="cls-5" transform="translate(727.32 1202.53)">SayIt</text><text class="cls-5" transform="translate(726.32 1201.53)">SayIt</text><text class="cls-5" transform="translate(725.32 1200.53)">SayIt</text><text class="cls-5" transform="translate(724.32 1199.53)">SayIt</text><text class="cls-5" transform="translate(723.32 1198.53)">SayIt</text><text class="cls-5" transform="translate(722.32 1197.53)">SayIt</text><text class="cls-5" transform="translate(721.32 1196.53)">SayIt</text><text class="cls-5" transform="translate(720.32 1195.53)">SayIt</text><text class="cls-5" transform="translate(719.32 1194.53)">SayIt</text><text class="cls-5" transform="translate(718.32 1193.53)">SayIt</text><text class="cls-5" transform="translate(717.32 1192.53)">SayIt</text><text class="cls-5" transform="translate(716.32 1191.53)">SayIt</text><text class="cls-5" transform="translate(715.32 1190.53)">SayIt</text><text class="cls-5" transform="translate(714.32 1189.53)">SayIt</text><text class="cls-5" transform="translate(713.32 1188.53)">SayIt</text><text class="cls-5" transform="translate(712.32 1187.53)">SayIt</text><text class="cls-5" transform="translate(711.32 1186.53)">SayIt</text><text class="cls-5" transform="translate(710.32 1185.53)">SayIt</text><text class="cls-5" transform="translate(709.32 1184.53)">SayIt</text><text class="cls-5" transform="translate(708.32 1183.53)">SayIt</text><text class="cls-5" transform="translate(707.32 1182.53)">SayIt</text><text class="cls-5" transform="translate(706.32 1181.53)">SayIt</text><text class="cls-5" transform="translate(705.32 1180.53)">SayIt</text><text class="cls-5" transform="translate(704.32 1179.53)">SayIt</text><text class="cls-5" transform="translate(703.32 1178.53)">SayIt</text><text class="cls-5" transform="translate(702.32 1177.53)">SayIt</text><text class="cls-5" transform="translate(701.32 1176.53)">SayIt</text><text class="cls-5" transform="translate(700.32 1175.53)">SayIt</text><text class="cls-5" transform="translate(699.32 1174.53)">SayIt</text><text class="cls-5" transform="translate(698.32 1173.53)">SayIt</text><text class="cls-5" transform="translate(697.32 1172.53)">SayIt</text><text class="cls-5" transform="translate(696.32 1171.53)">SayIt</text><text class="cls-5" transform="translate(695.32 1170.53)">SayIt</text><text class="cls-5" transform="translate(694.32 1169.53)">SayIt</text><text class="cls-5" transform="translate(693.32 1168.53)">SayIt</text><text class="cls-5" transform="translate(692.32 1167.53)">SayIt</text><text class="cls-5" transform="translate(691.32 1166.53)">SayIt</text><text class="cls-5" transform="translate(690.32 1165.53)">SayIt</text><text class="cls-5" transform="translate(689.32 1164.53)">SayIt</text><text class="cls-5" transform="translate(688.32 1163.53)">SayIt</text><text class="cls-5" transform="translate(687.32 1162.53)">SayIt</text><text class="cls-5" transform="translate(686.32 1161.53)">SayIt</text><text class="cls-5" transform="translate(685.32 1160.53)">SayIt</text><text class="cls-5" transform="translate(684.32 1159.53)">SayIt</text><text class="cls-5" transform="translate(683.32 1158.53)">SayIt</text><text class="cls-5" transform="translate(682.32 1157.53)">SayIt</text><text class="cls-5" transform="translate(681.32 1156.53)">SayIt</text><text class="cls-5" transform="translate(680.32 1155.53)">SayIt</text><text class="cls-5" transform="translate(679.32 1154.53)">SayIt</text><text class="cls-5" transform="translate(678.32 1153.53)">SayIt</text><text class="cls-5" transform="translate(677.32 1152.53)">SayIt</text><text class="cls-5" transform="translate(676.32 1151.53)">SayIt</text><text class="cls-5" transform="translate(675.32 1150.53)">SayIt</text><text class="cls-5" transform="translate(674.32 1149.53)">SayIt</text><text class="cls-5" transform="translate(673.32 1148.53)">SayIt</text><text class="cls-5" transform="translate(672.32 1147.53)">SayIt</text><text class="cls-5" transform="translate(671.32 1146.53)">SayIt</text><text class="cls-5" transform="translate(670.32 1145.53)">SayIt</text><text class="cls-5" transform="translate(669.32 1144.53)">SayIt</text><text class="cls-5" transform="translate(668.32 1143.53)">SayIt</text><text class="cls-5" transform="translate(667.32 1142.53)">SayIt</text><text class="cls-5" transform="translate(666.32 1141.53)">SayIt</text><text class="cls-5" transform="translate(665.32 1140.53)">SayIt</text><text class="cls-5" transform="translate(664.32 1139.53)">SayIt</text><text class="cls-5" transform="translate(663.32 1138.53)">SayIt</text><text class="cls-5" transform="translate(662.32 1137.53)">SayIt</text><text class="cls-5" transform="translate(661.32 1136.53)">SayIt</text><text class="cls-5" transform="translate(660.32 1135.53)">SayIt</text><text class="cls-5" transform="translate(659.32 1134.53)">SayIt</text><text class="cls-5" transform="translate(658.32 1133.53)">SayIt</text><text class="cls-5" transform="translate(657.32 1132.53)">SayIt</text><text class="cls-5" transform="translate(656.32 1131.53)">SayIt</text><text class="cls-5" transform="translate(655.32 1130.53)">SayIt</text><text class="cls-5" transform="translate(654.32 1129.53)">SayIt</text><text class="cls-5" transform="translate(653.32 1128.53)">SayIt</text><text class="cls-5" transform="translate(652.32 1127.53)">SayIt</text><text class="cls-5" transform="translate(651.32 1126.53)">SayIt</text><text class="cls-5" transform="translate(650.32 1125.53)">SayIt</text><text class="cls-5" transform="translate(649.32 1124.53)">SayIt</text><text class="cls-5" transform="translate(648.32 1123.53)">SayIt</text><text class="cls-5" transform="translate(647.32 1122.53)">SayIt</text><text class="cls-5" transform="translate(646.32 1121.53)">SayIt</text><text class="cls-5" transform="translate(645.32 1120.53)">SayIt</text><text class="cls-5" transform="translate(644.32 1119.53)">SayIt</text><text class="cls-5" transform="translate(643.32 1118.53)">SayIt</text><text class="cls-5" transform="translate(642.32 1117.53)">SayIt</text><text class="cls-5" transform="translate(641.32 1116.53)">SayIt</text><text class="cls-5" transform="translate(640.32 1115.53)">SayIt</text><text class="cls-5" transform="translate(639.32 1114.53)">SayIt</text><text class="cls-5" transform="translate(638.32 1113.53)">SayIt</text><text class="cls-5" transform="translate(637.32 1112.53)">SayIt</text><text class="cls-5" transform="translate(636.32 1111.53)">SayIt</text><text class="cls-5" transform="translate(635.32 1110.53)">SayIt</text><text class="cls-5" transform="translate(634.32 1109.53)">SayIt</text><text class="cls-5" transform="translate(633.32 1108.53)">SayIt</text><text class="cls-5" transform="translate(632.32 1107.53)">SayIt</text><text class="cls-5" transform="translate(631.32 1106.53)">SayIt</text><text class="cls-5" transform="translate(630.32 1105.53)">SayIt</text><text class="cls-5" transform="translate(629.32 1104.53)">SayIt</text><text class="cls-5" transform="translate(628.32 1103.53)">SayIt</text><text class="cls-5" transform="translate(627.32 1102.53)">SayIt</text><text class="cls-5" transform="translate(626.32 1101.53)">SayIt</text><text class="cls-5" transform="translate(625.32 1100.53)">SayIt</text><text class="cls-5" transform="translate(624.32 1099.53)">SayIt</text><text class="cls-5" transform="translate(623.32 1098.53)">SayIt</text><text class="cls-5" transform="translate(622.32 1097.53)">SayIt</text><text class="cls-5" transform="translate(621.32 1096.53)">SayIt</text><text class="cls-5" transform="translate(620.32 1095.53)">SayIt</text><text class="cls-5" transform="translate(619.32 1094.53)">SayIt</text><text class="cls-5" transform="translate(618.32 1093.53)">SayIt</text><text class="cls-5" transform="translate(617.32 1092.53)">SayIt</text><text class="cls-5" transform="translate(616.32 1091.53)">SayIt</text><text class="cls-5" transform="translate(615.32 1090.53)">SayIt</text><text class="cls-5" transform="translate(614.32 1089.53)">SayIt</text><text class="cls-5" transform="translate(613.32 1088.53)">SayIt</text><text class="cls-5" transform="translate(612.32 1087.53)">SayIt</text><text class="cls-5" transform="translate(611.32 1086.53)">SayIt</text><text class="cls-5" transform="translate(610.32 1085.53)">SayIt</text><text class="cls-5" transform="translate(609.32 1084.53)">SayIt</text><text class="cls-5" transform="translate(608.32 1083.53)">SayIt</text><text class="cls-5" transform="translate(607.32 1082.53)">SayIt</text><text class="cls-5" transform="translate(606.32 1081.53)">SayIt</text><text class="cls-5" transform="translate(605.32 1080.53)">SayIt</text><text class="cls-5" transform="translate(604.32 1079.53)">SayIt</text><text class="cls-5" transform="translate(603.32 1078.53)">SayIt</text><text class="cls-5" transform="translate(602.32 1077.53)">SayIt</text><text class="cls-5" transform="translate(601.32 1076.53)">SayIt</text><text class="cls-5" transform="translate(600.32 1075.53)">SayIt</text><text class="cls-5" transform="translate(599.32 1074.53)">SayIt</text><text class="cls-5" transform="translate(598.32 1073.53)">SayIt</text><text class="cls-5" transform="translate(597.32 1072.53)">SayIt</text><text class="cls-5" transform="translate(596.32 1071.53)">SayIt</text><text class="cls-5" transform="translate(595.32 1070.53)">SayIt</text><text class="cls-5" transform="translate(594.32 1069.53)">SayIt</text><text class="cls-5" transform="translate(593.32 1068.53)">SayIt</text><text class="cls-5" transform="translate(592.32 1067.53)">SayIt</text><text class="cls-5" transform="translate(591.32 1066.53)">SayIt</text><text class="cls-5" transform="translate(590.32 1065.53)">SayIt</text><text class="cls-5" transform="translate(589.32 1064.53)">SayIt</text><text class="cls-5" transform="translate(588.32 1063.53)">SayIt</text><text class="cls-5" transform="translate(587.32 1062.53)">SayIt</text><text class="cls-5" transform="translate(586.32 1061.53)">SayIt</text><text class="cls-5" transform="translate(585.32 1060.53)">SayIt</text><text class="cls-5" transform="translate(584.32 1059.53)">SayIt</text><text class="cls-5" transform="translate(583.32 1058.53)">SayIt</text><text class="cls-5" transform="translate(582.32 1057.53)">SayIt</text><text class="cls-5" transform="translate(581.32 1056.53)">SayIt</text><text class="cls-5" transform="translate(580.32 1055.53)">SayIt</text><text class="cls-5" transform="translate(579.32 1054.53)">SayIt</text><text class="cls-5" transform="translate(578.32 1053.53)">SayIt</text><text class="cls-5" transform="translate(577.32 1052.53)">SayIt</text><text class="cls-5" transform="translate(576.32 1051.53)">SayIt</text><text class="cls-5" transform="translate(575.32 1050.53)">SayIt</text><text class="cls-5" transform="translate(574.32 1049.53)">SayIt</text><text class="cls-5" transform="translate(573.32 1048.53)">SayIt</text><text class="cls-5" transform="translate(572.32 1047.53)">SayIt</text><text class="cls-5" transform="translate(571.32 1046.53)">SayIt</text><text class="cls-5" transform="translate(570.32 1045.53)">SayIt</text><text class="cls-5" transform="translate(569.32 1044.53)">SayIt</text><text class="cls-5" transform="translate(568.32 1043.53)">SayIt</text><text class="cls-5" transform="translate(567.32 1042.53)">SayIt</text><text class="cls-5" transform="translate(566.32 1041.53)">SayIt</text><text class="cls-5" transform="translate(565.32 1040.53)">SayIt</text><text class="cls-5" transform="translate(564.32 1039.53)">SayIt</text><text class="cls-5" transform="translate(563.32 1038.53)">SayIt</text><text class="cls-5" transform="translate(562.32 1037.53)">SayIt</text><text class="cls-5" transform="translate(561.32 1036.53)">SayIt</text><text class="cls-5" transform="translate(560.32 1035.53)">SayIt</text><text class="cls-5" transform="translate(559.32 1034.53)">SayIt</text><text class="cls-5" transform="translate(558.32 1033.53)">SayIt</text><text class="cls-5" transform="translate(557.32 1032.53)">SayIt</text><text class="cls-5" transform="translate(556.32 1031.53)">SayIt</text><text class="cls-5" transform="translate(555.32 1030.53)">SayIt</text><text class="cls-5" transform="translate(554.32 1029.53)">SayIt</text><text class="cls-5" transform="translate(553.32 1028.53)">SayIt</text><text class="cls-5" transform="translate(552.32 1027.53)">SayIt</text><text class="cls-5" transform="translate(551.32 1026.53)">SayIt</text><text class="cls-5" transform="translate(550.32 1025.53)">SayIt</text><text class="cls-5" transform="translate(549.32 1024.53)">SayIt</text><text class="cls-5" transform="translate(548.32 1023.53)">SayIt</text><text class="cls-5" transform="translate(547.32 1022.53)">SayIt</text><text class="cls-5" transform="translate(546.32 1021.53)">SayIt</text><text class="cls-5" transform="translate(545.32 1020.53)">SayIt</text><text class="cls-5" transform="translate(544.32 1019.53)">SayIt</text><text class="cls-5" transform="translate(543.32 1018.53)">SayIt</text><text class="cls-5" transform="translate(542.32 1017.53)">SayIt</text><text class="cls-5" transform="translate(541.32 1016.53)">SayIt</text><text class="cls-5" transform="translate(540.32 1015.53)">SayIt</text><text class="cls-5" transform="translate(539.32 1014.53)">SayIt</text><text class="cls-5" transform="translate(538.32 1013.53)">SayIt</text><text class="cls-5" transform="translate(537.32 1012.53)">SayIt</text><text class="cls-5" transform="translate(536.32 1011.53)">SayIt</text><text class="cls-5" transform="translate(535.32 1010.53)">SayIt</text><text class="cls-5" transform="translate(534.32 1009.53)">SayIt</text><text class="cls-5" transform="translate(533.32 1008.53)">SayIt</text><text class="cls-5" transform="translate(532.32 1007.53)">SayIt</text><text class="cls-5" transform="translate(531.32 1006.53)">SayIt</text><text class="cls-5" transform="translate(530.32 1005.53)">SayIt</text><text class="cls-5" transform="translate(529.32 1004.53)">SayIt</text><text class="cls-5" transform="translate(528.32 1003.53)">SayIt</text><text class="cls-5" transform="translate(527.32 1002.53)">SayIt</text><text class="cls-5" transform="translate(526.32 1001.53)">SayIt</text><text class="cls-5" transform="translate(525.32 1000.53)">SayIt</text><text class="cls-5" transform="translate(524.32 999.53)">SayIt</text><text class="cls-5" transform="translate(523.32 998.53)">SayIt</text><text class="cls-5" transform="translate(522.32 997.53)">SayIt</text><text class="cls-5" transform="translate(521.32 996.53)">SayIt</text><text class="cls-5" transform="translate(520.32 995.53)">SayIt</text><text class="cls-5" transform="translate(519.32 994.53)">SayIt</text><text class="cls-5" transform="translate(518.32 993.53)">SayIt</text><text class="cls-5" transform="translate(517.32 992.53)">SayIt</text><text class="cls-5" transform="translate(516.32 991.53)">SayIt</text><text class="cls-5" transform="translate(515.32 990.53)">SayIt</text><text class="cls-5" transform="translate(514.32 989.53)">SayIt</text><text class="cls-5" transform="translate(513.32 988.53)">SayIt</text><text class="cls-5" transform="translate(512.32 987.53)">SayIt</text><text class="cls-5" transform="translate(511.32 986.53)">SayIt</text><text class="cls-5" transform="translate(510.32 985.53)">SayIt</text><text class="cls-5" transform="translate(509.32 984.53)">SayIt</text><text class="cls-5" transform="translate(508.32 983.53)">SayIt</text><text class="cls-5" transform="translate(507.32 982.53)">SayIt</text><text class="cls-5" transform="translate(506.32 981.53)">SayIt</text><text class="cls-5" transform="translate(505.32 980.53)">SayIt</text><text class="cls-5" transform="translate(504.32 979.53)">SayIt</text><text class="cls-5" transform="translate(503.32 978.53)">SayIt</text><text class="cls-5" transform="translate(502.32 977.53)">SayIt</text><text class="cls-5" transform="translate(501.32 976.53)">SayIt</text><text class="cls-5" transform="translate(500.32 975.53)">SayIt</text><text class="cls-5" transform="translate(499.32 974.53)">SayIt</text><text class="cls-5" transform="translate(498.32 973.53)">SayIt</text><text class="cls-5" transform="translate(497.32 972.53)">SayIt</text><text class="cls-5" transform="translate(496.32 971.53)">SayIt</text><text class="cls-5" transform="translate(495.32 970.53)">SayIt</text><text class="cls-5" transform="translate(494.32 969.53)">SayIt</text><text class="cls-5" transform="translate(493.32 968.53)">SayIt</text><text class="cls-5" transform="translate(492.32 967.53)">SayIt</text><text class="cls-5" transform="translate(491.32 966.53)">SayIt</text><text class="cls-5" transform="translate(490.32 965.53)">SayIt</text><text class="cls-5" transform="translate(489.32 964.53)">SayIt</text><text class="cls-5" transform="translate(488.32 963.53)">SayIt</text><text class="cls-5" transform="translate(487.32 962.53)">SayIt</text><text class="cls-5" transform="translate(486.32 961.53)">SayIt</text><text class="cls-5" transform="translate(485.32 960.53)">SayIt</text><text class="cls-5" transform="translate(484.32 959.53)">SayIt</text><text class="cls-5" transform="translate(483.32 958.53)">SayIt</text><text class="cls-5" transform="translate(482.32 957.53)">SayIt</text><text class="cls-5" transform="translate(481.32 956.53)">SayIt</text><text class="cls-5" transform="translate(480.32 955.53)">SayIt</text><text class="cls-5" transform="translate(479.32 954.53)">SayIt</text><text class="cls-5" transform="translate(478.32 953.53)">SayIt</text><text class="cls-5" transform="translate(477.32 952.53)">SayIt</text><text class="cls-5" transform="translate(476.32 951.53)">SayIt</text><text class="cls-5" transform="translate(475.32 950.53)">SayIt</text><text class="cls-5" transform="translate(474.32 949.53)">SayIt</text><text class="cls-5" transform="translate(473.32 948.53)">SayIt</text><text class="cls-5" transform="translate(472.32 947.53)">SayIt</text><text class="cls-5" transform="translate(471.32 946.53)">SayIt</text><text class="cls-5" transform="translate(470.32 945.53)">SayIt</text><text class="cls-5" transform="translate(469.32 944.53)">SayIt</text><text class="cls-5" transform="translate(468.32 943.53)">SayIt</text><text class="cls-5" transform="translate(467.32 942.53)">SayIt</text><text class="cls-5" transform="translate(466.32 941.53)">SayIt</text><text class="cls-5" transform="translate(465.32 940.53)">SayIt</text><text class="cls-5" transform="translate(464.32 939.53)">SayIt</text><text class="cls-5" transform="translate(463.32 938.53)">SayIt</text><text class="cls-5" transform="translate(462.32 937.53)">SayIt</text><text class="cls-5" transform="translate(461.32 936.53)">SayIt</text><text class="cls-5" transform="translate(460.32 935.53)">SayIt</text><text class="cls-5" transform="translate(459.32 934.53)">SayIt</text><text class="cls-5" transform="translate(458.32 933.53)">SayIt</text><text class="cls-5" transform="translate(457.32 932.53)">SayIt</text><text class="cls-5" transform="translate(456.32 931.53)">SayIt</text><text class="cls-5" transform="translate(455.32 930.53)">SayIt</text><text class="cls-5" transform="translate(454.32 929.53)">SayIt</text><text class="cls-5" transform="translate(453.32 928.53)">SayIt</text><text class="cls-5" transform="translate(452.32 927.53)">SayIt</text><text class="cls-5" transform="translate(451.32 926.53)">SayIt</text><text class="cls-5" transform="translate(450.32 925.53)">SayIt</text><text class="cls-5" transform="translate(449.32 924.53)">SayIt</text><text class="cls-5" transform="translate(448.32 923.53)">SayIt</text><text class="cls-5" transform="translate(447.32 922.53)">SayIt</text><text class="cls-5" transform="translate(446.32 921.53)">SayIt</text><text class="cls-5" transform="translate(445.32 920.53)">SayIt</text><text class="cls-5" transform="translate(444.32 919.53)">SayIt</text><text class="cls-5" transform="translate(443.32 918.53)">SayIt</text><text class="cls-5" transform="translate(442.32 917.53)">SayIt</text><text class="cls-5" transform="translate(441.32 916.53)">SayIt</text><text class="cls-5" transform="translate(440.32 915.53)">SayIt</text><text class="cls-5" transform="translate(439.32 914.53)">SayIt</text><text class="cls-5" transform="translate(438.32 913.53)">SayIt</text><text class="cls-5" transform="translate(437.32 912.53)">SayIt</text><text class="cls-5" transform="translate(436.32 911.53)">SayIt</text><text class="cls-5" transform="translate(435.32 910.53)">SayIt</text><text class="cls-5" transform="translate(434.32 909.53)">SayIt</text><text class="cls-5" transform="translate(433.32 908.53)">SayIt</text><text class="cls-5" transform="translate(432.32 907.53)">SayIt</text><text class="cls-5" transform="translate(431.32 906.53)">SayIt</text><text class="cls-5" transform="translate(430.32 905.53)">SayIt</text><text class="cls-5" transform="translate(429.32 904.53)">SayIt</text><text class="cls-5" transform="translate(428.32 903.53)">SayIt</text><text class="cls-5" transform="translate(427.32 902.53)">SayIt</text><text class="cls-5" transform="translate(426.32 901.53)">SayIt</text><text class="cls-5" transform="translate(425.32 900.53)">SayIt</text><text class="cls-5" transform="translate(424.32 899.53)">SayIt</text><text class="cls-5" transform="translate(423.32 898.53)">SayIt</text><text class="cls-5" transform="translate(422.32 897.53)">SayIt</text><text class="cls-5" transform="translate(421.32 896.53)">SayIt</text><text class="cls-5" transform="translate(420.32 895.53)">SayIt</text><text class="cls-5" transform="translate(419.32 894.53)">SayIt</text><text class="cls-5" transform="translate(418.32 893.53)">SayIt</text><text class="cls-5" transform="translate(417.32 892.53)">SayIt</text><text class="cls-5" transform="translate(416.32 891.53)">SayIt</text><text class="cls-5" transform="translate(415.32 890.53)">SayIt</text><text class="cls-5" transform="translate(414.32 889.53)">SayIt</text><text class="cls-5" transform="translate(413.32 888.53)">SayIt</text><text class="cls-5" transform="translate(412.32 887.53)">SayIt</text><text class="cls-5" transform="translate(411.32 886.53)">SayIt</text><text class="cls-5" transform="translate(410.32 885.53)">SayIt</text><text class="cls-5" transform="translate(409.32 884.53)">SayIt</text><text class="cls-5" transform="translate(408.32 883.53)">SayIt</text><text class="cls-5" transform="translate(407.32 882.53)">SayIt</text><text class="cls-5" transform="translate(406.32 881.53)">SayIt</text><text class="cls-5" transform="translate(405.32 880.53)">SayIt</text><text class="cls-5" transform="translate(404.32 879.53)">SayIt</text><text class="cls-5" transform="translate(403.32 878.53)">SayIt</text><text class="cls-5" transform="translate(402.32 877.53)">SayIt</text><text class="cls-5" transform="translate(401.32 876.53)">SayIt</text><text class="cls-5" transform="translate(400.32 875.53)">SayIt</text><text class="cls-5" transform="translate(399.32 874.53)">SayIt</text><text class="cls-5" transform="translate(398.32 873.53)">SayIt</text><text class="cls-5" transform="translate(397.32 872.53)">SayIt</text><text class="cls-5" transform="translate(396.32 871.53)">SayIt</text><text class="cls-5" transform="translate(395.32 870.53)">SayIt</text><text class="cls-5" transform="translate(394.32 869.53)">SayIt</text><text class="cls-5" transform="translate(393.32 868.53)">SayIt</text><text class="cls-5" transform="translate(392.32 867.53)">SayIt</text><text class="cls-5" transform="translate(391.32 866.53)">SayIt</text><text class="cls-5" transform="translate(390.32 865.53)">SayIt</text><text class="cls-5" transform="translate(389.32 864.53)">SayIt</text><text class="cls-5" transform="translate(388.32 863.53)">SayIt</text><text class="cls-5" transform="translate(387.32 862.53)">SayIt</text><text class="cls-5" transform="translate(386.32 861.53)">SayIt</text><text class="cls-5" transform="translate(385.32 860.53)">SayIt</text><text class="cls-5" transform="translate(384.32 859.53)">SayIt</text><text class="cls-5" transform="translate(383.32 858.53)">SayIt</text><text class="cls-5" transform="translate(382.32 857.53)">SayIt</text><text class="cls-5" transform="translate(381.32 856.53)">SayIt</text><text class="cls-5" transform="translate(380.32 855.53)">SayIt</text><text class="cls-5" transform="translate(379.32 854.53)">SayIt</text><text class="cls-5" transform="translate(378.32 853.53)">SayIt</text><text class="cls-5" transform="translate(377.32 852.53)">SayIt</text><text class="cls-5" transform="translate(376.32 851.53)">SayIt</text><text class="cls-5" transform="translate(375.32 850.53)">SayIt</text><text class="cls-5" transform="translate(374.32 849.53)">SayIt</text><text class="cls-5" transform="translate(373.32 848.53)">SayIt</text><text class="cls-5" transform="translate(372.32 847.53)">SayIt</text><text class="cls-5" transform="translate(371.32 846.53)">SayIt</text><text class="cls-5" transform="translate(370.32 845.53)">SayIt</text><text class="cls-5" transform="translate(369.32 844.53)">SayIt</text><text class="cls-5" transform="translate(368.32 843.53)">SayIt</text><text class="cls-5" transform="translate(367.32 842.53)">SayIt</text><text class="cls-5" transform="translate(366.32 841.53)">SayIt</text><text class="cls-5" transform="translate(365.32 840.53)">SayIt</text><text class="cls-5" transform="translate(364.32 839.53)">SayIt</text><text class="cls-5" transform="translate(363.32 838.53)">SayIt</text><text class="cls-5" transform="translate(362.32 837.53)">SayIt</text><text class="cls-5" transform="translate(361.32 836.53)">SayIt</text><text class="cls-5" transform="translate(360.32 835.53)">SayIt</text><text class="cls-5" transform="translate(359.32 834.53)">SayIt</text><text class="cls-5" transform="translate(358.32 833.53)">SayIt</text><text class="cls-5" transform="translate(357.32 832.53)">SayIt</text><text class="cls-5" transform="translate(356.32 831.53)">SayIt</text><text class="cls-5" transform="translate(355.32 830.53)">SayIt</text><text class="cls-5" transform="translate(354.32 829.53)">SayIt</text><text class="cls-5" transform="translate(353.32 828.53)">SayIt</text><text class="cls-5" transform="translate(352.32 827.53)">SayIt</text><text class="cls-5" transform="translate(351.32 826.53)">SayIt</text><text class="cls-5" transform="translate(350.32 825.53)">SayIt</text><text class="cls-5" transform="translate(349.32 824.53)">SayIt</text><text class="cls-5" transform="translate(348.32 823.53)">SayIt</text><text class="cls-5" transform="translate(347.32 822.53)">SayIt</text><text class="cls-5" transform="translate(346.32 821.53)">SayIt</text><text class="cls-5" transform="translate(345.32 820.53)">SayIt</text><text class="cls-5" transform="translate(344.32 819.53)">SayIt</text><text class="cls-5" transform="translate(343.32 818.53)">SayIt</text><text class="cls-5" transform="translate(342.32 817.53)">SayIt</text><text class="cls-5" transform="translate(341.32 816.53)">SayIt</text><text class="cls-5" transform="translate(340.32 815.53)">SayIt</text><text class="cls-5" transform="translate(339.32 814.53)">SayIt</text><text class="cls-5" transform="translate(338.32 813.53)">SayIt</text><text class="cls-5" transform="translate(337.32 812.53)">SayIt</text><text class="cls-5" transform="translate(336.32 811.53)">SayIt</text><text class="cls-5" transform="translate(335.32 810.53)">SayIt</text><text class="cls-5" transform="translate(334.32 809.53)">SayIt</text><text class="cls-5" transform="translate(333.32 808.53)">SayIt</text><text class="cls-5" transform="translate(332.32 807.53)">SayIt</text><text class="cls-5" transform="translate(331.32 806.53)">SayIt</text><text class="cls-5" transform="translate(330.32 805.53)">SayIt</text><text class="cls-5" transform="translate(329.32 804.53)">SayIt</text><text class="cls-5" transform="translate(328.32 803.53)">SayIt</text><text class="cls-5" transform="translate(327.32 802.53)">SayIt</text><text class="cls-5" transform="translate(326.32 801.53)">SayIt</text><text class="cls-5" transform="translate(325.32 800.53)">SayIt</text><text class="cls-5" transform="translate(324.32 799.53)">SayIt</text><text class="cls-5" transform="translate(323.32 798.53)">SayIt</text><text class="cls-5" transform="translate(322.32 797.53)">SayIt</text><text class="cls-5" transform="translate(321.32 796.53)">SayIt</text><text class="cls-5" transform="translate(320.32 795.53)">SayIt</text><text class="cls-5" transform="translate(319.32 794.53)">SayIt</text><text class="cls-5" transform="translate(318.32 793.53)">SayIt</text><text class="cls-5" transform="translate(317.32 792.53)">SayIt</text><text class="cls-5" transform="translate(316.32 791.53)">SayIt</text><text class="cls-5" transform="translate(315.32 790.53)">SayIt</text><text class="cls-5" transform="translate(314.32 789.53)">SayIt</text><text class="cls-5" transform="translate(313.32 788.53)">SayIt</text><text class="cls-5" transform="translate(312.32 787.53)">SayIt</text><text class="cls-5" transform="translate(311.32 786.53)">SayIt</text><text class="cls-5" transform="translate(310.32 785.53)">SayIt</text><text class="cls-5" transform="translate(309.32 784.53)">SayIt</text><text class="cls-5" transform="translate(308.32 783.53)">SayIt</text><text class="cls-5" transform="translate(307.32 782.53)">SayIt</text><text class="cls-5" transform="translate(306.32 781.53)">SayIt</text><text class="cls-5" transform="translate(305.32 780.53)">SayIt</text><text class="cls-5" transform="translate(304.32 779.53)">SayIt</text><text class="cls-5" transform="translate(303.32 778.53)">SayIt</text><text class="cls-5" transform="translate(302.32 777.53)">SayIt</text><text class="cls-5" transform="translate(301.32 776.53)">SayIt</text><text class="cls-5" transform="translate(300.32 775.53)">SayIt</text><text class="cls-5" transform="translate(299.32 774.53)">SayIt</text><text class="cls-5" transform="translate(298.32 773.53)">SayIt</text><text class="cls-5" transform="translate(297.32 772.53)">SayIt</text><text class="cls-5" transform="translate(296.32 771.53)">SayIt</text><text class="cls-5" transform="translate(295.32 770.53)">SayIt</text><text class="cls-5" transform="translate(294.32 769.53)">SayIt</text><text class="cls-5" transform="translate(293.32 768.53)">SayIt</text><text class="cls-5" transform="translate(292.32 767.53)">SayIt</text><text class="cls-5" transform="translate(291.32 766.53)">SayIt</text><text class="cls-5" transform="translate(290.32 765.53)">SayIt</text><text class="cls-5" transform="translate(289.32 764.53)">SayIt</text><text class="cls-5" transform="translate(288.32 763.53)">SayIt</text><text class="cls-5" transform="translate(287.32 762.53)">SayIt</text><text class="cls-5" transform="translate(286.32 761.53)">SayIt</text><text class="cls-5" transform="translate(285.32 760.53)">SayIt</text><text class="cls-5" transform="translate(284.32 759.53)">SayIt</text><text class="cls-5" transform="translate(283.32 758.53)">SayIt</text><text class="cls-5" transform="translate(282.32 757.53)">SayIt</text><text class="cls-5" transform="translate(281.32 756.53)">SayIt</text><text class="cls-5" transform="translate(280.32 755.53)">SayIt</text><text class="cls-5" transform="translate(279.32 754.53)">SayIt</text><text class="cls-5" transform="translate(278.32 753.53)">SayIt</text><text class="cls-5" transform="translate(277.32 752.53)">SayIt</text><text class="cls-5" transform="translate(276.32 751.53)">SayIt</text><text class="cls-5" transform="translate(275.32 750.53)">SayIt</text><text class="cls-5" transform="translate(274.32 749.53)">SayIt</text><text class="cls-5" transform="translate(273.32 748.53)">SayIt</text><text class="cls-5" transform="translate(272.32 747.53)">SayIt</text><text class="cls-5" transform="translate(271.32 746.53)">SayIt</text><text class="cls-5" transform="translate(270.32 745.53)">SayIt</text><text class="cls-5" transform="translate(269.32 744.53)">SayIt</text><text class="cls-5" transform="translate(268.32 743.53)">SayIt</text><text class="cls-5" transform="translate(267.32 742.53)">SayIt</text><text class="cls-5" transform="translate(266.32 741.53)">SayIt</text><text class="cls-5" transform="translate(265.32 740.53)">SayIt</text><text class="cls-5" transform="translate(264.32 739.53)">SayIt</text><text class="cls-5" transform="translate(263.32 738.53)">SayIt</text><text class="cls-5" transform="translate(262.32 737.53)">SayIt</text><text class="cls-5" transform="translate(261.32 736.53)">SayIt</text><text class="cls-5" transform="translate(260.32 735.53)">SayIt</text><text class="cls-5" transform="translate(259.32 734.53)">SayIt</text><text class="cls-5" transform="translate(258.32 733.53)">SayIt</text><text class="cls-5" transform="translate(257.32 732.53)">SayIt</text><text class="cls-5" transform="translate(256.32 731.53)">SayIt</text><text class="cls-5" transform="translate(255.32 730.53)">SayIt</text><text class="cls-5" transform="translate(254.32 729.53)">SayIt</text><text class="cls-5" transform="translate(253.32 728.53)">SayIt</text><text class="cls-5" transform="translate(252.32 727.53)">SayIt</text><text class="cls-5" transform="translate(251.32 726.53)">SayIt</text><text class="cls-5" transform="translate(250.32 725.53)">SayIt</text><text class="cls-5" transform="translate(249.32 724.53)">SayIt</text><text class="cls-5" transform="translate(248.32 723.53)">SayIt</text><text class="cls-5" transform="translate(247.32 722.53)">SayIt</text><text class="cls-5" transform="translate(246.32 721.53)">SayIt</text><text class="cls-5" transform="translate(245.32 720.53)">SayIt</text><text class="cls-5" transform="translate(244.32 719.53)">SayIt</text><text class="cls-5" transform="translate(243.32 718.53)">SayIt</text><text class="cls-5" transform="translate(242.32 717.53)">SayIt</text><text class="cls-5" transform="translate(241.32 716.53)">SayIt</text><text class="cls-5" transform="translate(240.32 715.53)">SayIt</text><text class="cls-5" transform="translate(239.32 714.53)">SayIt</text><text class="cls-5" transform="translate(238.32 713.53)">SayIt</text><text class="cls-5" transform="translate(237.32 712.53)">SayIt</text><text class="cls-5" transform="translate(236.32 711.53)">SayIt</text><text class="cls-5" transform="translate(235.32 710.53)">SayIt</text><text class="cls-5" transform="translate(234.32 709.53)">SayIt</text><text class="cls-5" transform="translate(233.32 708.53)">SayIt</text><text class="cls-5" transform="translate(232.32 707.53)">SayIt</text><text class="cls-5" transform="translate(231.32 706.53)">SayIt</text><text class="cls-5" transform="translate(230.32 705.53)">SayIt</text><text class="cls-5" transform="translate(229.32 704.53)">SayIt</text><text class="cls-5" transform="translate(228.32 703.53)">SayIt</text><text class="cls-5" transform="translate(227.32 702.53)">SayIt</text><text class="cls-5" transform="translate(226.32 701.53)">SayIt</text><text class="cls-5" transform="translate(225.32 700.53)">SayIt</text><text class="cls-5" transform="translate(224.32 699.53)">SayIt</text><text class="cls-5" transform="translate(223.32 698.53)">SayIt</text><text class="cls-5" transform="translate(222.32 697.53)">SayIt</text><text class="cls-5" transform="translate(221.32 696.53)">SayIt</text><text class="cls-5" transform="translate(220.32 695.53)">SayIt</text><text class="cls-5" transform="translate(219.32 694.53)">SayIt</text><text class="cls-5" transform="translate(218.32 693.53)">SayIt</text><text class="cls-5" transform="translate(217.32 692.53)">SayIt</text><text class="cls-5" transform="translate(216.32 691.53)">SayIt</text><text class="cls-5" transform="translate(215.32 690.53)">SayIt</text><text class="cls-5" transform="translate(214.32 689.53)">SayIt</text><text class="cls-5" transform="translate(213.32 688.53)">SayIt</text><text class="cls-5" transform="translate(212.32 687.53)">SayIt</text><text class="cls-5" transform="translate(211.32 686.53)">SayIt</text><text class="cls-5" transform="translate(210.32 685.53)">SayIt</text><text class="cls-5" transform="translate(209.32 684.53)">SayIt</text><text class="cls-5" transform="translate(208.32 683.53)">SayIt</text><text class="cls-5" transform="translate(207.32 682.53)">SayIt</text><text class="cls-5" transform="translate(206.32 681.53)">SayIt</text><text class="cls-5" transform="translate(205.32 680.53)">SayIt</text><text class="cls-5" transform="translate(204.32 679.53)">SayIt</text><text class="cls-5" transform="translate(203.32 678.53)">SayIt</text><text class="cls-5" transform="translate(202.32 677.53)">SayIt</text><text class="cls-5" transform="translate(201.32 676.53)">SayIt</text><text class="cls-5" transform="translate(200.32 675.53)">SayIt</text><text class="cls-5" transform="translate(199.32 674.53)">SayIt</text><text class="cls-5" transform="translate(198.32 673.53)">SayIt</text><text class="cls-5" transform="translate(197.32 672.53)">SayIt</text><text class="cls-5" transform="translate(196.32 671.53)">SayIt</text><text class="cls-5" transform="translate(195.32 670.53)">SayIt</text><text class="cls-5" transform="translate(194.32 669.53)">SayIt</text><text class="cls-5" transform="translate(193.32 668.53)">SayIt</text><text class="cls-5" transform="translate(192.32 667.53)">SayIt</text><text class="cls-5" transform="translate(191.32 666.53)">SayIt</text><text class="cls-5" transform="translate(190.32 665.53)">SayIt</text><text class="cls-5" transform="translate(189.32 664.53)">SayIt</text><text class="cls-5" transform="translate(188.32 663.53)">SayIt</text><text class="cls-5" transform="translate(187.32 662.53)">SayIt</text><text class="cls-5" transform="translate(186.32 661.53)">SayIt</text><text class="cls-5" transform="translate(185.32 660.53)">SayIt</text><text class="cls-5" transform="translate(184.32 659.53)">SayIt</text><text class="cls-5" transform="translate(183.32 658.53)">SayIt</text><text class="cls-5" transform="translate(182.32 657.53)">SayIt</text><text class="cls-5" transform="translate(181.32 656.53)">SayIt</text><text class="cls-5" transform="translate(180.32 655.53)">SayIt</text><text class="cls-5" transform="translate(179.32 654.53)">SayIt</text><text class="cls-5" transform="translate(178.32 653.53)">SayIt</text><text class="cls-5" transform="translate(177.32 652.53)">SayIt</text><text class="cls-5" transform="translate(176.32 651.53)">SayIt</text><text class="cls-5" transform="translate(175.32 650.53)">SayIt</text><text class="cls-5" transform="translate(174.32 649.53)">SayIt</text><text class="cls-5" transform="translate(173.32 648.53)">SayIt</text><text class="cls-5" transform="translate(172.32 647.53)">SayIt</text><text class="cls-5" transform="translate(171.32 646.53)">SayIt</text><text class="cls-5" transform="translate(170.32 645.53)">SayIt</text><text class="cls-5" transform="translate(169.32 644.53)">SayIt</text><text class="cls-5" transform="translate(168.32 643.53)">SayIt</text><text class="cls-5" transform="translate(167.32 642.53)">SayIt</text><text class="cls-5" transform="translate(166.32 641.53)">SayIt</text><text class="cls-5" transform="translate(165.32 640.53)">SayIt</text><text class="cls-5" transform="translate(164.32 639.53)">SayIt</text><text class="cls-5" transform="translate(163.32 638.53)">SayIt</text><text class="cls-5" transform="translate(162.32 637.53)">SayIt</text><text class="cls-5" transform="translate(161.32 636.53)">SayIt</text><text class="cls-5" transform="translate(160.32 635.53)">SayIt</text><text class="cls-5" transform="translate(159.32 634.53)">SayIt</text><text class="cls-5" transform="translate(158.32 633.53)">SayIt</text><text class="cls-5" transform="translate(157.32 632.53)">SayIt</text><text class="cls-5" transform="translate(156.32 631.53)">SayIt</text><text class="cls-5" transform="translate(155.32 630.53)">SayIt</text><text class="cls-5" transform="translate(154.32 629.53)">SayIt</text><text class="cls-5" transform="translate(153.32 628.53)">SayIt</text><text class="cls-5" transform="translate(152.32 627.53)">SayIt</text><text class="cls-5" transform="translate(151.32 626.53)">SayIt</text><text class="cls-5" transform="translate(150.32 625.53)">SayIt</text><text class="cls-5" transform="translate(149.32 624.53)">SayIt</text><text class="cls-5" transform="translate(148.32 623.53)">SayIt</text><text class="cls-5" transform="translate(147.32 622.53)">SayIt</text><text class="cls-5" transform="translate(146.32 621.53)">SayIt</text><text class="cls-5" transform="translate(145.32 620.53)">SayIt</text><text class="cls-5" transform="translate(144.32 619.53)">SayIt</text><text class="cls-5" transform="translate(143.32 618.53)">SayIt</text><text class="cls-5" transform="translate(142.32 617.53)">SayIt</text><text class="cls-5" transform="translate(141.32 616.53)">SayIt</text><text class="cls-5" transform="translate(140.32 615.53)">SayIt</text><text class="cls-5" transform="translate(139.32 614.53)">SayIt</text><text class="cls-5" transform="translate(138.32 613.53)">SayIt</text><text class="cls-5" transform="translate(137.32 612.53)">SayIt</text><text class="cls-5" transform="translate(136.32 611.53)">SayIt</text><text class="cls-5" transform="translate(135.32 610.53)">SayIt</text><text class="cls-5" transform="translate(134.32 609.53)">SayIt</text><text class="cls-5" transform="translate(133.32 608.53)">SayIt</text><text class="cls-5" transform="translate(132.32 607.53)">SayIt</text><text class="cls-5" transform="translate(131.32 606.53)">SayIt</text><text class="cls-5" transform="translate(130.32 605.53)">SayIt</text><text class="cls-5" transform="translate(129.32 604.53)">SayIt</text><text class="cls-5" transform="translate(128.32 603.53)">SayIt</text><text class="cls-5" transform="translate(127.32 602.53)">SayIt</text><text class="cls-5" transform="translate(126.32 601.53)">SayIt</text><text class="cls-5" transform="translate(125.32 600.53)">SayIt</text><text class="cls-5" transform="translate(124.32 599.53)">SayIt</text><text class="cls-5" transform="translate(123.32 598.53)">SayIt</text></g><text class="cls-6" transform="translate(123.32 598.53)">SayIt</text></svg>